<svg xmlns="http://www.w3.org/2000/svg" viewBox="0 0 200 360" fill="none" aria-hidden="true">
  <defs>
    <linearGradient id="liqueurGlass" x1="100" y1="50" x2="100" y2="330" gradientUnits="userSpaceOnUse">
      <stop stop-color="#4a3520" stop-opacity="0.94"/>
      <stop offset="0.5" stop-color="#6b4528" stop-opacity="0.9"/>
      <stop offset="1" stop-color="#3a2818" stop-opacity="0.92"/>
    </linearGradient>
    <linearGradient id="liqueurHighlight" x1="72" y1="90" x2="128" y2="300" gradientUnits="userSpaceOnUse">
      <stop stop-color="#ffffff" stop-opacity="0.2"/>
      <stop offset="1" stop-color="#ffffff" stop-opacity="0"/>
    </linearGradient>
    <linearGradient id="liqueurLabel" x1="100" y1="150" x2="100" y2="230" gradientUnits="userSpaceOnUse">
      <stop stop-color="#f8f2ea" stop-opacity="0.92"/>
      <stop offset="1" stop-color="#e6d8c4" stop-opacity="0.86"/>
    </linearGradient>
  </defs>
  <ellipse cx="100" cy="332" rx="38" ry="7" fill="#000" fill-opacity="0.35"/>
  <path d="M86 48h28l6 22v12c0 12-8 20-16 24v188c0 8-7 14-15 14H97c-8 0-15-6-15-14V106c-8-4-16-12-16-24V70l6-22z" fill="url(#liqueurGlass)"/>
  <path d="M90 54h20l4 18v10c0 10-6 16-12 20v192c0 5-4 9-9 9H97c-5 0-9-4-9-9V102c-6-4-12-10-12-20V72l4-18z" fill="url(#liqueurHighlight)"/>
  <rect x="78" y="156" width="44" height="68" rx="2" fill="url(#liqueurLabel)"/>
  <rect x="92" y="18" width="16" height="30" rx="2" fill="#2a2420"/>
</svg>
