<svg width="130" height="57" viewBox="0 0 130 57" fill="none" xmlns="http://www.w3.org/2000/svg">
<g clip-path="url(#clip0_8782_84043)">
<path fill-rule="evenodd" clip-rule="evenodd" d="M23.317 23.5576C23.317 23.9342 23.6809 23.967 23.8192 23.967H35.9922L37.6568 19.3623C36.7272 19.6152 24.0539 23.0409 23.8847 23.0882C23.71 23.1355 23.317 23.1719 23.317 23.5576Z" fill="#D9333A"/>
<path fill-rule="evenodd" clip-rule="evenodd" d="M92.2597 16.5478C92.2597 16.5478 102.648 4.78053 102.886 4.51674C103.004 4.38393 103.325 4.09648 103.045 3.71261C102.766 3.32873 102.311 3.5707 102.146 3.62712C101.811 3.73628 82.8357 9.82185 82.8357 9.82185L82.7556 9.85101L92.0886 16.7389L92.2597 16.5478Z" fill="#D9333A"/>
<path fill-rule="evenodd" clip-rule="evenodd" d="M72.2109 3.9854C71.2558 3.41413 71.0375 4.82046 71.0375 4.82046L68.8252 11.0461L88.0571 15.5489C88.0571 15.5489 72.4929 4.18188 72.2109 3.9854Z" fill="#D9333A"/>
<path fill-rule="evenodd" clip-rule="evenodd" d="M93.6824 17.1337L104.222 19.3842C104.222 19.3842 114.988 12.851 115.39 12.5945C115.816 12.3234 116.091 12.1415 115.903 11.6212C115.756 11.2064 115.354 11.2482 115.045 11.2737C114.735 11.2991 97.9741 12.338 97.9741 12.338L93.6824 17.1337Z" fill="#D9333A"/>
<path d="M40.5332 18.8601L37.9297 26.2247H33.9345C27.2941 26.2247 21.3649 30.3854 19.1054 36.6293L18.8743 37.2715C15.9725 45.291 21.9144 53.7598 30.4451 53.7598H50.6085L62.9979 18.8601H40.5332Z" fill="#211E1E"/>
<path d="M62.454 27.8347L53.2501 53.7598H75.6549L84.353 29.2611C84.6004 28.5661 84.0837 27.8347 83.3469 27.8347H62.454Z" fill="#211E1E"/>
<path d="M95.478 34.9464H95.6872V34.9483C96.1293 34.9665 96.4823 35.3303 96.4823 35.7761C96.4823 36.2291 96.1184 36.5984 95.6672 36.6057L91.1335 36.6712C86.9455 36.6712 83.205 39.2965 81.7805 43.2353L81.6586 43.5737C79.8793 48.4949 83.5234 53.7472 88.7539 53.7472L112.45 53.7599L117.648 38.8835C119.555 33.4911 115.556 27.8367 109.838 27.8367H93.8534C93.8534 27.8367 88.6665 27.6875 86.6817 34.9465L95.478 34.9464Z" fill="#211E1E"/>
<path d="M13.1253 38.0866H10.3072L10.0579 39.3965H12.605L12.3157 40.8738H9.77778L9.50852 42.3038H12.3048L11.9955 43.852H7.5L8.91905 36.5293H13.4237L13.1253 38.0866Z" fill="#0F0C0C"/>
<path d="M17.3588 43.852H12.8633L14.2806 36.5293H15.9798L14.8609 42.3038H17.6681L17.3588 43.852Z" fill="#0F0C0C"/>
<path d="M25.6931 43.961L25.513 43.9902L22.0563 40.0059L21.3067 43.8519H19.6093L21.0466 36.4291L21.2867 36.3892L24.6833 40.3552L25.4329 36.5292H27.1303L25.6931 43.961Z" fill="white"/>
<path d="M33.1668 41.154C32.7956 43.0424 31.6586 43.9703 29.8902 43.9703C28.2019 43.9703 27.1431 43.1625 27.1431 41.6033C27.1431 41.3632 27.1721 41.0048 27.2322 40.7046L28.0418 36.5293H29.7392L28.9206 40.7246C28.9005 40.8538 28.8696 41.154 28.8696 41.3341C28.8696 42.0327 29.2499 42.422 29.9885 42.422C30.789 42.422 31.3075 41.9326 31.5185 40.8738L32.3664 36.5293H34.0656L33.1668 41.154Z" fill="white"/>
<path d="M39.185 38.0866H36.3688L36.1177 39.3965H38.6665L38.3754 40.8738H35.8393L35.5683 42.3038H38.3664L38.0571 43.852H33.5616L34.9788 36.5293H39.4852L39.185 38.0866Z" fill="white"/>
<path d="M42.0432 43.912H41.843L39.8545 36.5293H41.763L42.6326 40.5354L44.9995 36.5293H46.908L42.0432 43.912Z" fill="white"/>
<path d="M49.7079 37.9065C48.418 37.9065 47.4793 39.1254 47.4793 40.5845C47.4793 41.8034 48.0887 42.4729 49.1184 42.4729C50.4065 42.4729 51.3453 41.254 51.3453 39.7949C51.3453 38.576 50.7358 37.9065 49.7079 37.9065ZM48.9784 43.9702C46.9699 43.9702 45.6818 42.7131 45.6818 40.7337C45.6818 38.3959 47.3901 36.4092 49.848 36.4092C51.8547 36.4092 53.1428 37.6681 53.1428 39.6457C53.1428 41.9835 51.4362 43.9702 48.9784 43.9702Z" fill="white"/>
<path fill-rule="evenodd" clip-rule="evenodd" d="M121.691 24.8202C121.074 24.6128 46.3167 7.48035 46.0584 7.40213C45.8928 7.35303 45.367 7.13651 45.0487 7.5877C44.7285 8.03707 45.0705 8.41003 45.2779 8.66291C45.6036 9.0668 49.7024 12.0104 51.8711 13.555C41.6102 12.0541 30.9873 10.5241 30.8526 10.504C30.5888 10.4659 30.0831 10.3167 29.8156 10.7733C29.459 11.3755 30.0812 11.7685 30.0812 11.7685L37.7733 18.7691C37.7733 18.7691 38.0025 18.1542 38.1608 17.7321C38.2371 17.5339 38.3027 17.321 38.561 17.1136C38.8194 16.9044 39.0977 16.9353 39.2924 16.9353C39.6635 16.9372 65.2939 16.9116 65.2939 16.9116C65.2939 16.9116 65.7178 16.8843 66.0435 17.2646C66.2345 17.4847 66.2581 17.754 66.2454 17.9414L63.9549 23.6412L81.9114 17.3628C82.4609 17.17 83.0613 17.4611 83.2523 18.0087L85.8339 25.4205L86.1122 26.221C86.1122 26.221 121.285 26.2191 121.469 26.2191C121.654 26.2191 122.042 26.2248 122.231 25.8462C122.342 25.6242 122.464 25.0784 121.691 24.8201" fill="#D9333A"/>
<path d="M81.6786 19.7371L83.9491 26.2574H63.0271L81.6786 19.7371Z" fill="#3A97D9"/>
</g>
<defs>
<clipPath id="clip0_8782_84043">
<rect width="114.813" height="50.26" fill="white" transform="translate(7.5 3.5)"/>
</clipPath>
</defs>
</svg>
